<mxfile host="app.diagrams.net" modified="2023-10-29T10:35:08.944Z" agent="Mozilla/5.0 (Windows NT 10.0; Win64; x64) AppleWebKit/537.36 (KHTML, like Gecko) Chrome/118.0.0.0 Safari/537.36" etag="abmi3GhjfGaOhcV6EMen" version="22.0.8" type="github">
  <diagram id="C5RBs43oDa-KdzZeNtuy" name="Page-1">
    <mxGraphModel dx="1050" dy="662" grid="1" gridSize="10" guides="1" tooltips="1" connect="1" arrows="1" fold="1" page="1" pageScale="1" pageWidth="827" pageHeight="1169" background="none" math="0" shadow="1">
      <root>
        <mxCell id="WIyWlLk6GJQsqaUBKTNV-0" />
        <mxCell id="WIyWlLk6GJQsqaUBKTNV-1" parent="WIyWlLk6GJQsqaUBKTNV-0" />
        <mxCell id="imk5BwipFHjlvKhKJgRZ-3" style="edgeStyle=orthogonalEdgeStyle;rounded=0;orthogonalLoop=1;jettySize=auto;html=1;" edge="1" parent="WIyWlLk6GJQsqaUBKTNV-1" source="imk5BwipFHjlvKhKJgRZ-2">
          <mxGeometry relative="1" as="geometry">
            <mxPoint x="423" y="160" as="targetPoint" />
          </mxGeometry>
        </mxCell>
        <mxCell id="imk5BwipFHjlvKhKJgRZ-2" value="OPERATOR&lt;br&gt;{JOYSTICK/CONTROLLER)" style="rounded=0;whiteSpace=wrap;html=1;fillColor=#dae8fc;strokeColor=#6c8ebf;" vertex="1" parent="WIyWlLk6GJQsqaUBKTNV-1">
          <mxGeometry x="340" y="40" width="166" height="60" as="geometry" />
        </mxCell>
        <mxCell id="imk5BwipFHjlvKhKJgRZ-7" value="" style="swimlane;startSize=0;rounded=0;" vertex="1" parent="WIyWlLk6GJQsqaUBKTNV-1">
          <mxGeometry x="348" y="150" width="150" height="110" as="geometry">
            <mxRectangle x="370" y="150" width="50" height="40" as="alternateBounds" />
          </mxGeometry>
        </mxCell>
        <mxCell id="imk5BwipFHjlvKhKJgRZ-8" value="SNAKE LIKE ROBOT" style="text;html=1;align=center;verticalAlign=middle;resizable=0;points=[];autosize=1;strokeColor=#6c8ebf;fillColor=#dae8fc;rounded=0;" vertex="1" parent="imk5BwipFHjlvKhKJgRZ-7">
          <mxGeometry x="3" y="40" width="140" height="30" as="geometry" />
        </mxCell>
        <mxCell id="imk5BwipFHjlvKhKJgRZ-12" style="edgeStyle=orthogonalEdgeStyle;rounded=0;orthogonalLoop=1;jettySize=auto;html=1;" edge="1" parent="WIyWlLk6GJQsqaUBKTNV-1">
          <mxGeometry relative="1" as="geometry">
            <mxPoint x="240" y="320" as="targetPoint" />
            <mxPoint x="323" y="285" as="sourcePoint" />
            <Array as="points">
              <mxPoint x="241" y="285" />
            </Array>
          </mxGeometry>
        </mxCell>
        <mxCell id="imk5BwipFHjlvKhKJgRZ-13" style="edgeStyle=orthogonalEdgeStyle;rounded=0;orthogonalLoop=1;jettySize=auto;html=1;" edge="1" parent="WIyWlLk6GJQsqaUBKTNV-1">
          <mxGeometry relative="1" as="geometry">
            <mxPoint x="747" y="320" as="targetPoint" />
            <mxPoint x="670" y="285" as="sourcePoint" />
          </mxGeometry>
        </mxCell>
        <mxCell id="imk5BwipFHjlvKhKJgRZ-14" style="edgeStyle=orthogonalEdgeStyle;rounded=0;orthogonalLoop=1;jettySize=auto;html=1;" edge="1" parent="WIyWlLk6GJQsqaUBKTNV-1">
          <mxGeometry relative="1" as="geometry">
            <mxPoint x="90" y="320" as="targetPoint" />
            <mxPoint x="253" y="285" as="sourcePoint" />
          </mxGeometry>
        </mxCell>
        <mxCell id="imk5BwipFHjlvKhKJgRZ-15" style="edgeStyle=orthogonalEdgeStyle;rounded=0;orthogonalLoop=1;jettySize=auto;html=1;" edge="1" parent="WIyWlLk6GJQsqaUBKTNV-1">
          <mxGeometry relative="1" as="geometry">
            <mxPoint x="907" y="320" as="targetPoint" />
            <mxPoint x="750" y="285" as="sourcePoint" />
            <Array as="points">
              <mxPoint x="908" y="285" />
            </Array>
          </mxGeometry>
        </mxCell>
        <mxCell id="imk5BwipFHjlvKhKJgRZ-24" style="edgeStyle=orthogonalEdgeStyle;rounded=0;orthogonalLoop=1;jettySize=auto;html=1;" edge="1" parent="WIyWlLk6GJQsqaUBKTNV-1" source="imk5BwipFHjlvKhKJgRZ-11">
          <mxGeometry relative="1" as="geometry">
            <mxPoint x="320" y="285" as="targetPoint" />
          </mxGeometry>
        </mxCell>
        <mxCell id="imk5BwipFHjlvKhKJgRZ-27" style="edgeStyle=orthogonalEdgeStyle;rounded=0;orthogonalLoop=1;jettySize=auto;html=1;entryX=0.75;entryY=0;entryDx=0;entryDy=0;" edge="1" parent="WIyWlLk6GJQsqaUBKTNV-1" source="imk5BwipFHjlvKhKJgRZ-11" target="imk5BwipFHjlvKhKJgRZ-30">
          <mxGeometry relative="1" as="geometry">
            <mxPoint x="560" y="285" as="targetPoint" />
          </mxGeometry>
        </mxCell>
        <mxCell id="imk5BwipFHjlvKhKJgRZ-11" value="" style="strokeWidth=2;html=1;shape=mxgraph.flowchart.annotation_2;align=left;labelPosition=right;pointerEvents=1;direction=south;rounded=0;" vertex="1" parent="WIyWlLk6GJQsqaUBKTNV-1">
          <mxGeometry x="373" y="260" width="100" height="50" as="geometry" />
        </mxCell>
        <mxCell id="imk5BwipFHjlvKhKJgRZ-22" value="&lt;b&gt;LOCOMOTORY MOTORS&lt;/b&gt;" style="shape=process;whiteSpace=wrap;html=1;backgroundOutline=1;rounded=0;fillColor=#f5f5f5;strokeColor=#666666;gradientColor=#b3b3b3;" vertex="1" parent="WIyWlLk6GJQsqaUBKTNV-1">
          <mxGeometry x="40" y="320" width="120" height="60" as="geometry" />
        </mxCell>
        <mxCell id="imk5BwipFHjlvKhKJgRZ-23" value="&lt;b&gt;CAMERA&lt;/b&gt;" style="shape=process;whiteSpace=wrap;html=1;backgroundOutline=1;rounded=0;fillColor=#f5f5f5;gradientColor=#b3b3b3;strokeColor=#666666;" vertex="1" parent="WIyWlLk6GJQsqaUBKTNV-1">
          <mxGeometry x="180" y="320" width="120" height="60" as="geometry" />
        </mxCell>
        <mxCell id="imk5BwipFHjlvKhKJgRZ-25" value="&lt;b&gt;LIDAR&lt;br&gt;SENSOR&lt;br&gt;&lt;/b&gt;" style="shape=process;whiteSpace=wrap;html=1;backgroundOutline=1;rounded=0;fillColor=#f5f5f5;gradientColor=#b3b3b3;strokeColor=#666666;" vertex="1" parent="WIyWlLk6GJQsqaUBKTNV-1">
          <mxGeometry x="320" y="320" width="120" height="60" as="geometry" />
        </mxCell>
        <mxCell id="imk5BwipFHjlvKhKJgRZ-26" value="&lt;b&gt;THERMAL&lt;br&gt;SENSOR&lt;br&gt;&lt;/b&gt;" style="shape=process;whiteSpace=wrap;html=1;backgroundOutline=1;rounded=0;fillColor=#f5f5f5;gradientColor=#b3b3b3;strokeColor=#666666;" vertex="1" parent="WIyWlLk6GJQsqaUBKTNV-1">
          <mxGeometry x="450" y="320" width="120" height="60" as="geometry" />
        </mxCell>
        <mxCell id="imk5BwipFHjlvKhKJgRZ-28" value="&lt;b&gt;MULTI-GASS SENSORS&lt;br&gt;&lt;/b&gt;" style="shape=process;whiteSpace=wrap;html=1;backgroundOutline=1;rounded=0;fillColor=#f5f5f5;gradientColor=#b3b3b3;strokeColor=#666666;" vertex="1" parent="WIyWlLk6GJQsqaUBKTNV-1">
          <mxGeometry x="730" y="320" width="120" height="60" as="geometry" />
        </mxCell>
        <mxCell id="imk5BwipFHjlvKhKJgRZ-29" value="&lt;b&gt;MICROPHONES&lt;/b&gt;" style="shape=process;whiteSpace=wrap;html=1;backgroundOutline=1;rounded=0;fillColor=#f5f5f5;gradientColor=#b3b3b3;strokeColor=#666666;" vertex="1" parent="WIyWlLk6GJQsqaUBKTNV-1">
          <mxGeometry x="870" y="320" width="120" height="60" as="geometry" />
        </mxCell>
        <mxCell id="imk5BwipFHjlvKhKJgRZ-30" value="&lt;b&gt;ULTRASONIC&lt;br&gt;SENSIRS&lt;br&gt;&lt;/b&gt;" style="shape=process;whiteSpace=wrap;html=1;backgroundOutline=1;rounded=0;fillColor=#f5f5f5;gradientColor=#b3b3b3;strokeColor=#666666;" vertex="1" parent="WIyWlLk6GJQsqaUBKTNV-1">
          <mxGeometry x="590" y="320" width="120" height="60" as="geometry" />
        </mxCell>
        <mxCell id="imk5BwipFHjlvKhKJgRZ-32" style="edgeStyle=orthogonalEdgeStyle;rounded=0;orthogonalLoop=1;jettySize=auto;html=1;" edge="1" parent="WIyWlLk6GJQsqaUBKTNV-1" source="imk5BwipFHjlvKhKJgRZ-31">
          <mxGeometry relative="1" as="geometry">
            <mxPoint x="515" y="470" as="targetPoint" />
          </mxGeometry>
        </mxCell>
        <mxCell id="imk5BwipFHjlvKhKJgRZ-31" value="" style="shape=curlyBracket;whiteSpace=wrap;html=1;rounded=0;labelPosition=left;verticalLabelPosition=middle;align=right;verticalAlign=middle;direction=north;size=0.5;" vertex="1" parent="WIyWlLk6GJQsqaUBKTNV-1">
          <mxGeometry x="40" y="390" width="950" height="40" as="geometry" />
        </mxCell>
        <mxCell id="imk5BwipFHjlvKhKJgRZ-35" style="edgeStyle=orthogonalEdgeStyle;rounded=0;orthogonalLoop=1;jettySize=auto;html=1;entryX=0;entryY=0.5;entryDx=0;entryDy=0;" edge="1" parent="WIyWlLk6GJQsqaUBKTNV-1" source="imk5BwipFHjlvKhKJgRZ-33" target="imk5BwipFHjlvKhKJgRZ-2">
          <mxGeometry relative="1" as="geometry">
            <mxPoint x="20" y="70" as="targetPoint" />
            <Array as="points">
              <mxPoint x="20" y="520" />
              <mxPoint x="20" y="70" />
            </Array>
          </mxGeometry>
        </mxCell>
        <mxCell id="imk5BwipFHjlvKhKJgRZ-33" value="BLACKBOX" style="html=1;whiteSpace=wrap;shape=isoCube2;backgroundOutline=1;isoAngle=15;strokeColor=#BAC8D3;fontColor=#EEEEEE;fillColor=#09555B;align=center;" vertex="1" parent="WIyWlLk6GJQsqaUBKTNV-1">
          <mxGeometry x="473" y="470" width="90" height="100" as="geometry" />
        </mxCell>
        <mxCell id="imk5BwipFHjlvKhKJgRZ-36" value="&lt;i style=&quot;&quot;&gt;BLACKBOX IS THE DEVICE THAT STORES AND SHARES DATA FROM THE ROBOT TO THE OPERATOR&lt;/i&gt;" style="text;html=1;strokeColor=none;fillColor=none;align=center;verticalAlign=middle;whiteSpace=wrap;rounded=0;" vertex="1" parent="WIyWlLk6GJQsqaUBKTNV-1">
          <mxGeometry x="10" y="40" width="320" height="30" as="geometry" />
        </mxCell>
        <mxCell id="imk5BwipFHjlvKhKJgRZ-37" value="&lt;i&gt;PRESENT OUTSIDE WITH THE OPERATOR&lt;/i&gt;" style="text;html=1;align=center;verticalAlign=middle;resizable=0;points=[];autosize=1;strokeColor=none;fillColor=none;" vertex="1" parent="WIyWlLk6GJQsqaUBKTNV-1">
          <mxGeometry x="180" y="490" width="270" height="30" as="geometry" />
        </mxCell>
      </root>
    </mxGraphModel>
  </diagram>
</mxfile>
